<svg id="QuPDF_Light" data-name="QuPDF Light" xmlns="http://www.w3.org/2000/svg" xmlns:xlink="http://www.w3.org/1999/xlink" width="220" height="55" viewBox="0 0 220 55">
  <defs>
    <style>
      .cls-1 {
        fill: none;
        stroke: #776cff;
        stroke-linecap: round;
        stroke-linejoin: round;
        stroke-width: 5.292px;
      }

      .cls-1, .cls-4 {
        fill-rule: evenodd;
      }

      .cls-2 {
        fill: #776cff;
      }

      .cls-3 {
        filter: url(#filter);
      }
    </style>
    <filter id="filter" filterUnits="userSpaceOnUse">
      <feFlood result="flood" flood-color="#fff"/>
      <feComposite result="composite" operator="in" in2="SourceGraphic"/>
      <feBlend result="blend" in2="SourceGraphic"/>
    </filter>
  </defs>
  <g>
    <path class="cls-1" d="M21.969,8.969h8.063a15,15,0,0,1,15,15V47.031H21.969a15,15,0,0,1-15-15V23.969A15,15,0,0,1,21.969,8.969Z"/>
    <path id="Rectangle_1_copy" data-name="Rectangle 1 copy" class="cls-1" d="M23.419,19.419h5.163a6,6,0,0,1,6,6v5.163a6,6,0,0,1-6,6H23.419a6,6,0,0,1-6-6V25.419A6,6,0,0,1,23.419,19.419Z"/>
    <rect class="cls-2" x="28" y="34.063" width="19" height="5.156"/>
  </g>
  <g class="cls-3">
    <path id="QuPDF" class="cls-4" d="M87.626,29.493a15.866,15.866,0,0,0-31.727,0A15.71,15.71,0,0,0,71.763,45.024a16.147,16.147,0,0,0,9.446-3.066l2.053,2.714h4.364l-3.8-5.076A15.322,15.322,0,0,0,87.626,29.493Zm-6.52,6.534-4.928-6.534H71.763l6.828,9a11.322,11.322,0,1,1-6.828-20.255,11.362,11.362,0,0,1,11.5,11.258A11.221,11.221,0,0,1,81.106,36.027ZM108.258,21.25V35.524a5.256,5.256,0,0,1-5.237,5.227h-0.1a5.256,5.256,0,0,1-5.237-5.227V21.25H93.267V35.474c0,8.846,10.37,12.364,14.991,6.986v2.212h4.415V21.25h-4.415Zm14.473,23.422V18.586h6.417a5.1,5.1,0,1,1,0,10.2h-7.187v4.322h7.187a9.407,9.407,0,0,0,1.335-18.747v-0.1H118.316V44.672h4.415Zm31.107-30.408h-9.395V44.672h9.395A15.207,15.207,0,1,0,153.838,14.264Zm0,26.085h-4.98V18.586h4.98A10.884,10.884,0,1,1,153.838,40.349ZM179.4,18.586h12.784V14.264h-17.2V44.672H179.4V18.586ZM178.629,31.6h11.757V27.332H178.629V31.6Z"/>
    <path id="Rectangle_3_copy" data-name="Rectangle 3 copy" class="cls-4" d="M119.99,24.49h2.75V37.47h-2.75V24.49Z"/>
    <path id="Rectangle_3_copy_2" data-name="Rectangle 3 copy 2" class="cls-4" d="M176,24.49h3.4V37.47H176V24.49Z"/>
  </g>
</svg>
